<?xml version="1.0" encoding="UTF-8" standalone="no"?>
<!DOCTYPE svg PUBLIC "-//W3C//DTD SVG 1.1//EN"
 "http://www.w3.org/Graphics/SVG/1.1/DTD/svg11.dtd">
<!-- Generated by graphviz version 2.38.0 (20140413.2041)
 -->
<!-- Title: snakemake_dag Pages: 1 -->
<svg width="1046pt" height="620pt"
 viewBox="0.00 0.00 1046.00 620.00" xmlns="http://www.w3.org/2000/svg" xmlns:xlink="http://www.w3.org/1999/xlink">
<g id="graph0" class="graph" transform="scale(1 1) rotate(0) translate(4 616)">
<title>snakemake_dag</title>
<polygon fill="white" stroke="none" points="-4,4 -4,-616 1042,-616 1042,4 -4,4"/>
<!-- 0 -->
<g id="node1" class="node"><title>0</title>
<path fill="none" stroke="#61d856" stroke-width="2" d="M527,-36C527,-36 455,-36 455,-36 449,-36 443,-30 443,-24 443,-24 443,-12 443,-12 443,-6 449,-0 455,-0 455,-0 527,-0 527,-0 533,-0 539,-6 539,-12 539,-12 539,-24 539,-24 539,-30 533,-36 527,-36"/>
<text text-anchor="middle" x="491" y="-15.5" font-family="sans" font-size="10.00">make_summary</text>
</g>
<!-- 1 -->
<g id="node2" class="node"><title>1</title>
<path fill="none" stroke="#56d863" stroke-width="2" d="M84,-108C84,-108 12,-108 12,-108 6,-108 0,-102 0,-96 0,-96 0,-84 0,-84 0,-78 6,-72 12,-72 12,-72 84,-72 84,-72 90,-72 96,-78 96,-84 96,-84 96,-96 96,-96 96,-102 90,-108 84,-108"/>
<text text-anchor="middle" x="48" y="-87.5" font-family="sans" font-size="10.00">make_rulegraph</text>
</g>
<!-- 1&#45;&gt;0 -->
<g id="edge3" class="edge"><title>1&#45;&gt;0</title>
<path fill="none" stroke="grey" stroke-width="2" d="M96.2541,-75.1199C100.881,-73.9851 105.518,-72.9222 110,-72 223.234,-48.702 357.542,-32.6781 432.647,-24.7438"/>
<polygon fill="grey" stroke="grey" stroke-width="2" points="433.262,-28.1987 442.844,-23.678 432.534,-21.2366 433.262,-28.1987"/>
</g>
<!-- 2 -->
<g id="node3" class="node"><title>2</title>
<path fill="none" stroke="#afd856" stroke-width="2" d="M255.5,-612C255.5,-612 142.5,-612 142.5,-612 136.5,-612 130.5,-606 130.5,-600 130.5,-600 130.5,-588 130.5,-588 130.5,-582 136.5,-576 142.5,-576 142.5,-576 255.5,-576 255.5,-576 261.5,-576 267.5,-582 267.5,-588 267.5,-588 267.5,-600 267.5,-600 267.5,-606 261.5,-612 255.5,-612"/>
<text text-anchor="middle" x="199" y="-591.5" font-family="sans" font-size="10.00">get_codon_variant_table</text>
</g>
<!-- 2&#45;&gt;0 -->
<g id="edge8" class="edge"><title>2&#45;&gt;0</title>
<path fill="none" stroke="grey" stroke-width="2" d="M176.298,-575.88C165.295,-566.444 152.804,-553.847 145,-540 125.045,-504.594 124,-491.642 124,-451 124,-451 124,-451 124,-161 124,-90.612 190.413,-99.9821 255,-72 312.737,-46.9857 383.738,-33.0964 432.695,-25.8786"/>
<polygon fill="grey" stroke="grey" stroke-width="2" points="433.389,-29.3151 442.795,-24.438 432.401,-22.3852 433.389,-29.3151"/>
</g>
<!-- 3 -->
<g id="node4" class="node"><title>3</title>
<path fill="none" stroke="#56d87b" stroke-width="2" d="M331.5,-468C331.5,-468 212.5,-468 212.5,-468 206.5,-468 200.5,-462 200.5,-456 200.5,-456 200.5,-444 200.5,-444 200.5,-438 206.5,-432 212.5,-432 212.5,-432 331.5,-432 331.5,-432 337.5,-432 343.5,-438 343.5,-444 343.5,-444 343.5,-456 343.5,-456 343.5,-462 337.5,-468 331.5,-468"/>
<text text-anchor="middle" x="272" y="-447.5" font-family="sans" font-size="10.00">aggregate_variant_counts</text>
</g>
<!-- 2&#45;&gt;3 -->
<g id="edge16" class="edge"><title>2&#45;&gt;3</title>
<path fill="none" stroke="grey" stroke-width="2" d="M221.337,-575.836C232.151,-566.388 244.407,-553.793 252,-540 262.534,-520.864 267.523,-496.513 269.884,-478.121"/>
<polygon fill="grey" stroke="grey" stroke-width="2" points="273.375,-478.388 270.992,-468.065 266.417,-477.621 273.375,-478.388"/>
</g>
<!-- 15 -->
<g id="node16" class="node"><title>15</title>
<path fill="none" stroke="#56d8c9" stroke-width="2" d="M231.5,-540C231.5,-540 166.5,-540 166.5,-540 160.5,-540 154.5,-534 154.5,-528 154.5,-528 154.5,-516 154.5,-516 154.5,-510 160.5,-504 166.5,-504 166.5,-504 231.5,-504 231.5,-504 237.5,-504 243.5,-510 243.5,-516 243.5,-516 243.5,-528 243.5,-528 243.5,-534 237.5,-540 231.5,-540"/>
<text text-anchor="middle" x="199" y="-519.5" font-family="sans" font-size="10.00">count_variants</text>
</g>
<!-- 2&#45;&gt;15 -->
<g id="edge34" class="edge"><title>2&#45;&gt;15</title>
<path fill="none" stroke="grey" stroke-width="2" d="M199,-575.697C199,-567.983 199,-558.712 199,-550.112"/>
<polygon fill="grey" stroke="grey" stroke-width="2" points="202.5,-550.104 199,-540.104 195.5,-550.104 202.5,-550.104"/>
</g>
<!-- 3&#45;&gt;0 -->
<g id="edge4" class="edge"><title>3&#45;&gt;0</title>
<path fill="none" stroke="grey" stroke-width="2" d="M277.666,-431.728C285.848,-405.21 300,-352.732 300,-307 300,-307 300,-307 300,-161 300,-114.962 317.794,-101.665 353,-72 375.798,-52.7903 406.319,-40.1013 432.861,-31.9705"/>
<polygon fill="grey" stroke="grey" stroke-width="2" points="434.191,-35.2287 442.815,-29.0734 432.235,-28.5077 434.191,-35.2287"/>
</g>
<!-- 4 -->
<g id="node5" class="node"><title>4</title>
<path fill="none" stroke="#97d856" stroke-width="2" d="M259.5,-324C259.5,-324 164.5,-324 164.5,-324 158.5,-324 152.5,-318 152.5,-312 152.5,-312 152.5,-300 152.5,-300 152.5,-294 158.5,-288 164.5,-288 164.5,-288 259.5,-288 259.5,-288 265.5,-288 271.5,-294 271.5,-300 271.5,-300 271.5,-312 271.5,-312 271.5,-318 265.5,-324 259.5,-324"/>
<text text-anchor="middle" x="212" y="-303.5" font-family="sans" font-size="10.00">counts_to_cells_ratio</text>
</g>
<!-- 3&#45;&gt;4 -->
<g id="edge17" class="edge"><title>3&#45;&gt;4</title>
<path fill="none" stroke="grey" stroke-width="2" d="M264.763,-431.871C254.447,-407.457 235.419,-362.426 223.254,-333.635"/>
<polygon fill="grey" stroke="grey" stroke-width="2" points="226.379,-332.038 219.263,-324.189 219.931,-334.763 226.379,-332.038"/>
</g>
<!-- 5 -->
<g id="node6" class="node"><title>5</title>
<path fill="none" stroke="#56d892" stroke-width="2" d="M566.5,-396C566.5,-396 489.5,-396 489.5,-396 483.5,-396 477.5,-390 477.5,-384 477.5,-384 477.5,-372 477.5,-372 477.5,-366 483.5,-360 489.5,-360 489.5,-360 566.5,-360 566.5,-360 572.5,-360 578.5,-366 578.5,-372 578.5,-372 578.5,-384 578.5,-384 578.5,-390 572.5,-396 566.5,-396"/>
<text text-anchor="middle" x="528" y="-375.5" font-family="sans" font-size="10.00">counts_to_scores</text>
</g>
<!-- 3&#45;&gt;5 -->
<g id="edge18" class="edge"><title>3&#45;&gt;5</title>
<path fill="none" stroke="grey" stroke-width="2" d="M334.297,-431.966C374.905,-420.862 427.618,-406.448 467.8,-395.461"/>
<polygon fill="grey" stroke="grey" stroke-width="2" points="468.747,-398.831 477.47,-392.817 466.901,-392.078 468.747,-398.831"/>
</g>
<!-- 4&#45;&gt;0 -->
<g id="edge9" class="edge"><title>4&#45;&gt;0</title>
<path fill="none" stroke="grey" stroke-width="2" d="M212.128,-287.751C213.422,-244.694 222.977,-131.678 286,-72 325.333,-34.7554 387.307,-22.8271 432.825,-19.4107"/>
<polygon fill="grey" stroke="grey" stroke-width="2" points="433.095,-22.9007 442.853,-18.7744 432.651,-15.9148 433.095,-22.9007"/>
</g>
<!-- 5&#45;&gt;0 -->
<g id="edge12" class="edge"><title>5&#45;&gt;0</title>
<path fill="none" stroke="grey" stroke-width="2" d="M477.083,-363.06C420.803,-344.188 338,-304.595 338,-235 338,-235 338,-235 338,-161 338,-103.872 396.015,-63.256 440.597,-40.4789"/>
<polygon fill="grey" stroke="grey" stroke-width="2" points="442.186,-43.5978 449.596,-36.0258 439.081,-37.3239 442.186,-43.5978"/>
</g>
<!-- 6 -->
<g id="node7" class="node"><title>6</title>
<path fill="none" stroke="#568ad8" stroke-width="2" d="M606.5,-324C606.5,-324 503.5,-324 503.5,-324 497.5,-324 491.5,-318 491.5,-312 491.5,-312 491.5,-300 491.5,-300 491.5,-294 497.5,-288 503.5,-288 503.5,-288 606.5,-288 606.5,-288 612.5,-288 618.5,-294 618.5,-300 618.5,-300 618.5,-312 618.5,-312 618.5,-318 612.5,-324 606.5,-324"/>
<text text-anchor="middle" x="555" y="-303.5" font-family="sans" font-size="10.00">scores_to_frac_escape</text>
</g>
<!-- 5&#45;&gt;6 -->
<g id="edge22" class="edge"><title>5&#45;&gt;6</title>
<path fill="none" stroke="grey" stroke-width="2" d="M534.674,-359.697C537.715,-351.813 541.383,-342.304 544.761,-333.546"/>
<polygon fill="grey" stroke="grey" stroke-width="2" points="548.069,-334.694 548.403,-324.104 541.538,-332.175 548.069,-334.694"/>
</g>
<!-- 6&#45;&gt;0 -->
<g id="edge5" class="edge"><title>6&#45;&gt;0</title>
<path fill="none" stroke="grey" stroke-width="2" d="M495.271,-287.957C477.973,-279.946 461.058,-268.415 451,-252 440.351,-234.621 470.31,-103.932 484.271,-46.236"/>
<polygon fill="grey" stroke="grey" stroke-width="2" points="487.711,-46.9005 486.678,-36.3562 480.91,-45.2434 487.711,-46.9005"/>
</g>
<!-- 7 -->
<g id="node8" class="node"><title>7</title>
<path fill="none" stroke="#5673d8" stroke-width="2" d="M818,-252C818,-252 704,-252 704,-252 698,-252 692,-246 692,-240 692,-240 692,-228 692,-228 692,-222 698,-216 704,-216 704,-216 818,-216 818,-216 824,-216 830,-222 830,-228 830,-228 830,-240 830,-240 830,-246 824,-252 818,-252"/>
<text text-anchor="middle" x="761" y="-231.5" font-family="sans" font-size="10.00">call_strong_escape_sites</text>
</g>
<!-- 6&#45;&gt;7 -->
<g id="edge23" class="edge"><title>6&#45;&gt;7</title>
<path fill="none" stroke="grey" stroke-width="2" d="M605.13,-287.966C634.038,-278.142 670.569,-265.729 700.998,-255.389"/>
<polygon fill="grey" stroke="grey" stroke-width="2" points="702.303,-258.642 710.645,-252.111 700.051,-252.014 702.303,-258.642"/>
</g>
<!-- 8 -->
<g id="node9" class="node"><title>8</title>
<path fill="none" stroke="#56a2d8" stroke-width="2" d="M697.5,-180C697.5,-180 628.5,-180 628.5,-180 622.5,-180 616.5,-174 616.5,-168 616.5,-168 616.5,-156 616.5,-156 616.5,-150 622.5,-144 628.5,-144 628.5,-144 697.5,-144 697.5,-144 703.5,-144 709.5,-150 709.5,-156 709.5,-156 709.5,-168 709.5,-168 709.5,-174 703.5,-180 697.5,-180"/>
<text text-anchor="middle" x="663" y="-159.5" font-family="sans" font-size="10.00">escape_profiles</text>
</g>
<!-- 6&#45;&gt;8 -->
<g id="edge26" class="edge"><title>6&#45;&gt;8</title>
<path fill="none" stroke="grey" stroke-width="2" d="M571.232,-287.804C580.559,-277.655 592.309,-264.405 602,-252 618.007,-231.51 634.589,-207.074 646.417,-188.996"/>
<polygon fill="grey" stroke="grey" stroke-width="2" points="649.632,-190.47 652.14,-180.176 643.76,-186.66 649.632,-190.47"/>
</g>
<!-- 9 -->
<g id="node10" class="node"><title>9</title>
<path fill="none" stroke="#78d856" stroke-width="2" d="M431.5,-180C431.5,-180 378.5,-180 378.5,-180 372.5,-180 366.5,-174 366.5,-168 366.5,-168 366.5,-156 366.5,-156 366.5,-150 372.5,-144 378.5,-144 378.5,-144 431.5,-144 431.5,-144 437.5,-144 443.5,-150 443.5,-156 443.5,-156 443.5,-168 443.5,-168 443.5,-174 437.5,-180 431.5,-180"/>
<text text-anchor="middle" x="405" y="-159.5" font-family="sans" font-size="10.00">output_pdbs</text>
</g>
<!-- 6&#45;&gt;9 -->
<g id="edge27" class="edge"><title>6&#45;&gt;9</title>
<path fill="none" stroke="grey" stroke-width="2" d="M491.337,-294.951C464.77,-287.494 435.971,-274.528 418,-252 404.26,-234.777 401.717,-209.504 402.202,-190.286"/>
<polygon fill="grey" stroke="grey" stroke-width="2" points="405.71,-190.224 402.753,-180.05 398.72,-189.847 405.71,-190.224"/>
</g>
<!-- 11 -->
<g id="node12" class="node"><title>11</title>
<path fill="none" stroke="#d8a456" stroke-width="2" d="M860,-180C860,-180 778,-180 778,-180 772,-180 766,-174 766,-168 766,-168 766,-156 766,-156 766,-150 772,-144 778,-144 778,-144 860,-144 860,-144 866,-144 872,-150 872,-156 872,-156 872,-168 872,-168 872,-174 866,-180 860,-180"/>
<text text-anchor="middle" x="819" y="-159.5" font-family="sans" font-size="10.00">natural_mutations</text>
</g>
<!-- 6&#45;&gt;11 -->
<g id="edge29" class="edge"><title>6&#45;&gt;11</title>
<path fill="none" stroke="grey" stroke-width="2" d="M618.746,-302.282C693.744,-297.59 811.559,-285.036 839,-252 853.609,-234.412 845.379,-208.355 835.424,-188.975"/>
<polygon fill="grey" stroke="grey" stroke-width="2" points="838.397,-187.118 830.491,-180.065 832.273,-190.509 838.397,-187.118"/>
</g>
<!-- 12 -->
<g id="node13" class="node"><title>12</title>
<path fill="none" stroke="#56b9d8" stroke-width="2" d="M547.5,-252C547.5,-252 472.5,-252 472.5,-252 466.5,-252 460.5,-246 460.5,-240 460.5,-240 460.5,-228 460.5,-228 460.5,-222 466.5,-216 472.5,-216 472.5,-216 547.5,-216 547.5,-216 553.5,-216 559.5,-222 559.5,-228 559.5,-228 559.5,-240 559.5,-240 559.5,-246 553.5,-252 547.5,-252"/>
<text text-anchor="middle" x="510" y="-231.5" font-family="sans" font-size="10.00">homolog_escape</text>
</g>
<!-- 6&#45;&gt;12 -->
<g id="edge31" class="edge"><title>6&#45;&gt;12</title>
<path fill="none" stroke="grey" stroke-width="2" d="M543.876,-287.697C538.645,-279.559 532.3,-269.689 526.522,-260.701"/>
<polygon fill="grey" stroke="grey" stroke-width="2" points="529.347,-258.623 520.996,-252.104 523.459,-262.409 529.347,-258.623"/>
</g>
<!-- 13 -->
<g id="node14" class="node"><title>13</title>
<path fill="none" stroke="#d8d356" stroke-width="2" d="M626,-108C626,-108 550,-108 550,-108 544,-108 538,-102 538,-96 538,-96 538,-84 538,-84 538,-78 544,-72 550,-72 550,-72 626,-72 626,-72 632,-72 638,-78 638,-84 638,-84 638,-96 638,-96 638,-102 632,-108 626,-108"/>
<text text-anchor="middle" x="588" y="-87.5" font-family="sans" font-size="10.00">make_supp_data</text>
</g>
<!-- 6&#45;&gt;13 -->
<g id="edge33" class="edge"><title>6&#45;&gt;13</title>
<path fill="none" stroke="grey" stroke-width="2" d="M559.727,-287.924C562.453,-277.591 565.77,-264.113 568,-252 576.614,-205.212 582.567,-150.077 585.621,-117.978"/>
<polygon fill="grey" stroke="grey" stroke-width="2" points="589.106,-118.302 586.546,-108.021 582.136,-117.655 589.106,-118.302"/>
</g>
<!-- 7&#45;&gt;0 -->
<g id="edge11" class="edge"><title>7&#45;&gt;0</title>
<path fill="none" stroke="grey" stroke-width="2" d="M756.374,-215.988C746.392,-182.693 719.546,-108.956 669,-72 633.907,-46.3424 586.407,-33.0098 549.301,-26.1367"/>
<polygon fill="grey" stroke="grey" stroke-width="2" points="549.583,-22.6331 539.13,-24.3646 548.381,-29.5292 549.583,-22.6331"/>
</g>
<!-- 7&#45;&gt;8 -->
<g id="edge24" class="edge"><title>7&#45;&gt;8</title>
<path fill="none" stroke="grey" stroke-width="2" d="M737.027,-215.876C724.45,-206.893 708.868,-195.763 695.248,-186.034"/>
<polygon fill="grey" stroke="grey" stroke-width="2" points="697.237,-183.154 687.066,-180.19 693.169,-188.85 697.237,-183.154"/>
</g>
<!-- 7&#45;&gt;11 -->
<g id="edge28" class="edge"><title>7&#45;&gt;11</title>
<path fill="none" stroke="grey" stroke-width="2" d="M775.337,-215.697C782.291,-207.305 790.77,-197.07 798.401,-187.861"/>
<polygon fill="grey" stroke="grey" stroke-width="2" points="801.143,-190.038 804.828,-180.104 795.753,-185.571 801.143,-190.038"/>
</g>
<!-- 8&#45;&gt;0 -->
<g id="edge10" class="edge"><title>8&#45;&gt;0</title>
<path fill="none" stroke="grey" stroke-width="2" d="M664.726,-143.767C665.718,-124.073 664.203,-91.9914 647,-72 622.652,-43.7061 582.589,-30.4861 549.16,-24.3242"/>
<polygon fill="grey" stroke="grey" stroke-width="2" points="549.464,-20.8264 539.024,-22.6296 548.31,-27.7306 549.464,-20.8264"/>
</g>
<!-- 8&#45;&gt;13 -->
<g id="edge32" class="edge"><title>8&#45;&gt;13</title>
<path fill="none" stroke="grey" stroke-width="2" d="M644.461,-143.697C635.197,-135.05 623.838,-124.449 613.743,-115.027"/>
<polygon fill="grey" stroke="grey" stroke-width="2" points="616.025,-112.369 606.326,-108.104 611.249,-117.486 616.025,-112.369"/>
</g>
<!-- 9&#45;&gt;0 -->
<g id="edge13" class="edge"><title>9&#45;&gt;0</title>
<path fill="none" stroke="grey" stroke-width="2" d="M415.061,-143.878C425.648,-125.913 442.847,-96.8825 458,-72 463.44,-63.0678 469.467,-53.3401 474.865,-44.6852"/>
<polygon fill="grey" stroke="grey" stroke-width="2" points="477.879,-46.4672 480.213,-36.1326 471.944,-42.7559 477.879,-46.4672"/>
</g>
<!-- 10 -->
<g id="node11" class="node"><title>10</title>
<path fill="none" stroke="#d8bc56" stroke-width="2" d="M996,-252C996,-252 898,-252 898,-252 892,-252 886,-246 886,-240 886,-240 886,-228 886,-228 886,-222 892,-216 898,-216 898,-216 996,-216 996,-216 1002,-216 1008,-222 1008,-228 1008,-228 1008,-240 1008,-240 1008,-246 1002,-252 996,-252"/>
<text text-anchor="middle" x="947" y="-231.5" font-family="sans" font-size="10.00">gisaid_rbd_mutations</text>
</g>
<!-- 10&#45;&gt;0 -->
<g id="edge14" class="edge"><title>10&#45;&gt;0</title>
<path fill="none" stroke="grey" stroke-width="2" d="M936.395,-215.788C924.33,-196.972 903.383,-166.504 881,-144 843.39,-106.186 833.893,-93.3046 785,-72 707.804,-38.3631 610.272,-26.0741 549.248,-21.5845"/>
<polygon fill="grey" stroke="grey" stroke-width="2" points="549.252,-18.0765 539.035,-20.881 548.771,-25.06 549.252,-18.0765"/>
</g>
<!-- 10&#45;&gt;11 -->
<g id="edge30" class="edge"><title>10&#45;&gt;11</title>
<path fill="none" stroke="grey" stroke-width="2" d="M915.688,-215.876C898.797,-206.639 877.753,-195.131 859.615,-185.212"/>
<polygon fill="grey" stroke="grey" stroke-width="2" points="860.886,-181.917 850.433,-180.19 857.527,-188.059 860.886,-181.917"/>
</g>
<!-- 11&#45;&gt;0 -->
<g id="edge6" class="edge"><title>11&#45;&gt;0</title>
<path fill="none" stroke="grey" stroke-width="2" d="M810.996,-143.917C800.467,-123.43 779.969,-89.6491 752,-72 690.156,-32.9751 605.109,-21.9404 549.133,-19.2062"/>
<polygon fill="grey" stroke="grey" stroke-width="2" points="549.168,-15.7048 539.032,-18.7874 548.878,-22.6988 549.168,-15.7048"/>
</g>
<!-- 12&#45;&gt;0 -->
<g id="edge7" class="edge"><title>12&#45;&gt;0</title>
<path fill="none" stroke="grey" stroke-width="2" d="M508.477,-215.849C505.191,-178.832 497.409,-91.1809 493.431,-46.3863"/>
<polygon fill="grey" stroke="grey" stroke-width="2" points="496.901,-45.8837 492.53,-36.2325 489.928,-46.5028 496.901,-45.8837"/>
</g>
<!-- 13&#45;&gt;0 -->
<g id="edge1" class="edge"><title>13&#45;&gt;0</title>
<path fill="none" stroke="grey" stroke-width="2" d="M564.022,-71.6966C551.689,-62.796 536.484,-51.8232 523.147,-42.1989"/>
<polygon fill="grey" stroke="grey" stroke-width="2" points="524.859,-39.1181 514.702,-36.1043 520.763,-44.7944 524.859,-39.1181"/>
</g>
<!-- 14 -->
<g id="node15" class="node"><title>14</title>
<path fill="none" stroke="#56d8a9" stroke-width="2" d="M1026,-108C1026,-108 940,-108 940,-108 934,-108 928,-102 928,-96 928,-96 928,-84 928,-84 928,-78 934,-72 940,-72 940,-72 1026,-72 1026,-72 1032,-72 1038,-78 1038,-84 1038,-84 1038,-96 1038,-96 1038,-102 1032,-108 1026,-108"/>
<text text-anchor="middle" x="983" y="-87.5" font-family="sans" font-size="10.00">structural_contacts</text>
</g>
<!-- 14&#45;&gt;0 -->
<g id="edge2" class="edge"><title>14&#45;&gt;0</title>
<path fill="none" stroke="grey" stroke-width="2" d="M927.762,-74.7876C923.121,-73.7772 918.489,-72.8312 914,-72 784.715,-48.059 631.161,-31.8226 549.281,-24.1268"/>
<polygon fill="grey" stroke="grey" stroke-width="2" points="549.457,-20.6282 539.176,-23.1863 548.808,-27.5981 549.457,-20.6282"/>
</g>
<!-- 15&#45;&gt;3 -->
<g id="edge15" class="edge"><title>15&#45;&gt;3</title>
<path fill="none" stroke="grey" stroke-width="2" d="M217.045,-503.697C226.062,-495.05 237.118,-484.449 246.943,-475.027"/>
<polygon fill="grey" stroke="grey" stroke-width="2" points="249.367,-477.552 254.163,-468.104 244.522,-472.499 249.367,-477.552"/>
</g>
<!-- 16 -->
<g id="node17" class="node"><title>16</title>
<path fill="none" stroke="#d88556" stroke-width="2" d="M705,-468C705,-468 619,-468 619,-468 613,-468 607,-462 607,-456 607,-456 607,-444 607,-444 607,-438 613,-432 619,-432 619,-432 705,-432 705,-432 711,-432 717,-438 717,-444 717,-444 717,-456 717,-456 717,-462 711,-468 705,-468"/>
<text text-anchor="middle" x="662" y="-447.5" font-family="sans" font-size="10.00">get_mut_bind_expr</text>
</g>
<!-- 16&#45;&gt;5 -->
<g id="edge21" class="edge"><title>16&#45;&gt;5</title>
<path fill="none" stroke="grey" stroke-width="2" d="M629.22,-431.876C611.375,-422.554 589.103,-410.919 569.997,-400.939"/>
<polygon fill="grey" stroke="grey" stroke-width="2" points="571.39,-397.718 560.906,-396.19 568.149,-403.922 571.39,-397.718"/>
</g>
<!-- 16&#45;&gt;8 -->
<g id="edge25" class="edge"><title>16&#45;&gt;8</title>
<path fill="none" stroke="grey" stroke-width="2" d="M662.06,-431.966C662.226,-384.291 662.699,-249.185 662.903,-190.63"/>
<polygon fill="grey" stroke="grey" stroke-width="2" points="666.404,-190.319 662.939,-180.306 659.404,-190.294 666.404,-190.319"/>
</g>
<!-- 17 -->
<g id="node18" class="node"><title>17</title>
<path fill="none" stroke="#d85656" stroke-width="2" d="M456.5,-468C456.5,-468 381.5,-468 381.5,-468 375.5,-468 369.5,-462 369.5,-456 369.5,-456 369.5,-444 369.5,-444 369.5,-438 375.5,-432 381.5,-432 381.5,-432 456.5,-432 456.5,-432 462.5,-432 468.5,-438 468.5,-444 468.5,-444 468.5,-456 468.5,-456 468.5,-462 462.5,-468 456.5,-468"/>
<text text-anchor="middle" x="419" y="-447.5" font-family="sans" font-size="10.00">get_variant_expr</text>
</g>
<!-- 17&#45;&gt;5 -->
<g id="edge20" class="edge"><title>17&#45;&gt;5</title>
<path fill="none" stroke="grey" stroke-width="2" d="M445.664,-431.876C459.784,-422.808 477.311,-411.552 492.561,-401.759"/>
<polygon fill="grey" stroke="grey" stroke-width="2" points="494.71,-404.538 501.233,-396.19 490.927,-398.648 494.71,-404.538"/>
</g>
<!-- 18 -->
<g id="node19" class="node"><title>18</title>
<path fill="none" stroke="#56d0d8" stroke-width="2" d="M573,-468C573,-468 499,-468 499,-468 493,-468 487,-462 487,-456 487,-456 487,-444 487,-444 487,-438 493,-432 499,-432 499,-432 573,-432 573,-432 579,-432 585,-438 585,-444 585,-444 585,-456 585,-456 585,-462 579,-468 573,-468"/>
<text text-anchor="middle" x="536" y="-447.5" font-family="sans" font-size="10.00">get_variant_bind</text>
</g>
<!-- 18&#45;&gt;5 -->
<g id="edge19" class="edge"><title>18&#45;&gt;5</title>
<path fill="none" stroke="grey" stroke-width="2" d="M534.022,-431.697C533.141,-423.983 532.081,-414.712 531.099,-406.112"/>
<polygon fill="grey" stroke="grey" stroke-width="2" points="534.568,-405.642 529.955,-396.104 527.613,-406.437 534.568,-405.642"/>
</g>
</g>
</svg>
