<?xml version="1.0" encoding="UTF-8" standalone="no"?>
<!DOCTYPE svg PUBLIC "-//W3C//DTD SVG 1.1//EN"
 "http://www.w3.org/Graphics/SVG/1.1/DTD/svg11.dtd">
<!-- Generated by graphviz version 2.38.0 (20140413.2041)
 -->
<!-- Title: snakemake_dag Pages: 1 -->
<svg width="1071pt" height="620pt"
 viewBox="0.00 0.00 1071.00 620.00" xmlns="http://www.w3.org/2000/svg" xmlns:xlink="http://www.w3.org/1999/xlink">
<g id="graph0" class="graph" transform="scale(1 1) rotate(0) translate(4 616)">
<title>snakemake_dag</title>
<polygon fill="white" stroke="none" points="-4,4 -4,-616 1067,-616 1067,4 -4,4"/>
<!-- 0 -->
<g id="node1" class="node"><title>0</title>
<path fill="none" stroke="#56d892" stroke-width="2" d="M505,-36C505,-36 433,-36 433,-36 427,-36 421,-30 421,-24 421,-24 421,-12 421,-12 421,-6 427,-0 433,-0 433,-0 505,-0 505,-0 511,-0 517,-6 517,-12 517,-12 517,-24 517,-24 517,-30 511,-36 505,-36"/>
<text text-anchor="middle" x="469" y="-15.5" font-family="sans" font-size="10.00">make_summary</text>
</g>
<!-- 1 -->
<g id="node2" class="node"><title>1</title>
<path fill="none" stroke="#97d856" stroke-width="2" d="M84,-108C84,-108 12,-108 12,-108 6,-108 0,-102 0,-96 0,-96 0,-84 0,-84 0,-78 6,-72 12,-72 12,-72 84,-72 84,-72 90,-72 96,-78 96,-84 96,-84 96,-96 96,-96 96,-102 90,-108 84,-108"/>
<text text-anchor="middle" x="48" y="-87.5" font-family="sans" font-size="10.00">make_rulegraph</text>
</g>
<!-- 1&#45;&gt;0 -->
<g id="edge9" class="edge"><title>1&#45;&gt;0</title>
<path fill="none" stroke="grey" stroke-width="2" d="M96.2623,-75.1595C100.888,-74.0165 105.522,-72.9409 110,-72 215.044,-49.9296 339.275,-33.7614 410.63,-25.4145"/>
<polygon fill="grey" stroke="grey" stroke-width="2" points="411.235,-28.868 420.766,-24.24 410.429,-21.9145 411.235,-28.868"/>
</g>
<!-- 2 -->
<g id="node3" class="node"><title>2</title>
<path fill="none" stroke="#d88556" stroke-width="2" d="M222.5,-612C222.5,-612 109.5,-612 109.5,-612 103.5,-612 97.5,-606 97.5,-600 97.5,-600 97.5,-588 97.5,-588 97.5,-582 103.5,-576 109.5,-576 109.5,-576 222.5,-576 222.5,-576 228.5,-576 234.5,-582 234.5,-588 234.5,-588 234.5,-600 234.5,-600 234.5,-606 228.5,-612 222.5,-612"/>
<text text-anchor="middle" x="166" y="-591.5" font-family="sans" font-size="10.00">get_codon_variant_table</text>
</g>
<!-- 2&#45;&gt;0 -->
<g id="edge4" class="edge"><title>2&#45;&gt;0</title>
<path fill="none" stroke="grey" stroke-width="2" d="M157.501,-575.993C145.228,-549.822 124,-497.79 124,-451 124,-451 124,-451 124,-161 124,-115.41 137.748,-98.281 175,-72 212.136,-45.8007 336.216,-30.6337 410.791,-23.6725"/>
<polygon fill="grey" stroke="grey" stroke-width="2" points="411.331,-27.1379 420.972,-22.7444 410.695,-20.1668 411.331,-27.1379"/>
</g>
<!-- 3 -->
<g id="node4" class="node"><title>3</title>
<path fill="none" stroke="#d8d356" stroke-width="2" d="M298.5,-468C298.5,-468 179.5,-468 179.5,-468 173.5,-468 167.5,-462 167.5,-456 167.5,-456 167.5,-444 167.5,-444 167.5,-438 173.5,-432 179.5,-432 179.5,-432 298.5,-432 298.5,-432 304.5,-432 310.5,-438 310.5,-444 310.5,-444 310.5,-456 310.5,-456 310.5,-462 304.5,-468 298.5,-468"/>
<text text-anchor="middle" x="239" y="-447.5" font-family="sans" font-size="10.00">aggregate_variant_counts</text>
</g>
<!-- 2&#45;&gt;3 -->
<g id="edge16" class="edge"><title>2&#45;&gt;3</title>
<path fill="none" stroke="grey" stroke-width="2" d="M166.736,-575.918C168.18,-557.215 172.444,-526.846 185,-504 190.921,-493.226 199.73,-483.247 208.523,-474.921"/>
<polygon fill="grey" stroke="grey" stroke-width="2" points="211.072,-477.336 216.174,-468.051 206.395,-472.128 211.072,-477.336"/>
</g>
<!-- 15 -->
<g id="node16" class="node"><title>15</title>
<path fill="none" stroke="#d86e56" stroke-width="2" d="M271.5,-540C271.5,-540 206.5,-540 206.5,-540 200.5,-540 194.5,-534 194.5,-528 194.5,-528 194.5,-516 194.5,-516 194.5,-510 200.5,-504 206.5,-504 206.5,-504 271.5,-504 271.5,-504 277.5,-504 283.5,-510 283.5,-516 283.5,-516 283.5,-528 283.5,-528 283.5,-534 277.5,-540 271.5,-540"/>
<text text-anchor="middle" x="239" y="-519.5" font-family="sans" font-size="10.00">count_variants</text>
</g>
<!-- 2&#45;&gt;15 -->
<g id="edge34" class="edge"><title>2&#45;&gt;15</title>
<path fill="none" stroke="grey" stroke-width="2" d="M184.045,-575.697C193.062,-567.05 204.118,-556.449 213.943,-547.027"/>
<polygon fill="grey" stroke="grey" stroke-width="2" points="216.367,-549.552 221.163,-540.104 211.522,-544.499 216.367,-549.552"/>
</g>
<!-- 3&#45;&gt;0 -->
<g id="edge13" class="edge"><title>3&#45;&gt;0</title>
<path fill="none" stroke="grey" stroke-width="2" d="M222.292,-431.812C199.646,-406.622 162,-357.199 162,-307 162,-307 162,-307 162,-161 162,-52.6854 321.368,-26.737 410.456,-20.6935"/>
<polygon fill="grey" stroke="grey" stroke-width="2" points="410.927,-24.1713 420.694,-20.0653 410.498,-17.1844 410.927,-24.1713"/>
</g>
<!-- 4 -->
<g id="node5" class="node"><title>4</title>
<path fill="none" stroke="#d8a456" stroke-width="2" d="M297.5,-324C297.5,-324 202.5,-324 202.5,-324 196.5,-324 190.5,-318 190.5,-312 190.5,-312 190.5,-300 190.5,-300 190.5,-294 196.5,-288 202.5,-288 202.5,-288 297.5,-288 297.5,-288 303.5,-288 309.5,-294 309.5,-300 309.5,-300 309.5,-312 309.5,-312 309.5,-318 303.5,-324 297.5,-324"/>
<text text-anchor="middle" x="250" y="-303.5" font-family="sans" font-size="10.00">counts_to_cells_ratio</text>
</g>
<!-- 3&#45;&gt;4 -->
<g id="edge17" class="edge"><title>3&#45;&gt;4</title>
<path fill="none" stroke="grey" stroke-width="2" d="M240.327,-431.871C242.202,-407.67 245.646,-363.211 247.878,-334.393"/>
<polygon fill="grey" stroke="grey" stroke-width="2" points="251.386,-334.43 248.668,-324.189 244.406,-333.889 251.386,-334.43"/>
</g>
<!-- 5 -->
<g id="node6" class="node"><title>5</title>
<path fill="none" stroke="#56d0d8" stroke-width="2" d="M602.5,-396C602.5,-396 525.5,-396 525.5,-396 519.5,-396 513.5,-390 513.5,-384 513.5,-384 513.5,-372 513.5,-372 513.5,-366 519.5,-360 525.5,-360 525.5,-360 602.5,-360 602.5,-360 608.5,-360 614.5,-366 614.5,-372 614.5,-372 614.5,-384 614.5,-384 614.5,-390 608.5,-396 602.5,-396"/>
<text text-anchor="middle" x="564" y="-375.5" font-family="sans" font-size="10.00">counts_to_scores</text>
</g>
<!-- 3&#45;&gt;5 -->
<g id="edge21" class="edge"><title>3&#45;&gt;5</title>
<path fill="none" stroke="grey" stroke-width="2" d="M310.725,-433.552C368.446,-421.119 448.665,-403.841 503.252,-392.084"/>
<polygon fill="grey" stroke="grey" stroke-width="2" points="504.096,-395.483 513.135,-389.956 502.622,-388.64 504.096,-395.483"/>
</g>
<!-- 4&#45;&gt;0 -->
<g id="edge6" class="edge"><title>4&#45;&gt;0</title>
<path fill="none" stroke="grey" stroke-width="2" d="M245.729,-287.609C239.14,-257.566 228.762,-194.329 244,-144 255.145,-107.191 261.08,-94.8709 292,-72 326.652,-46.3686 373.69,-33.0426 410.566,-26.1657"/>
<polygon fill="grey" stroke="grey" stroke-width="2" points="411.433,-29.5671 420.678,-24.3922 410.224,-22.6723 411.433,-29.5671"/>
</g>
<!-- 5&#45;&gt;0 -->
<g id="edge2" class="edge"><title>5&#45;&gt;0</title>
<path fill="none" stroke="grey" stroke-width="2" d="M614.576,-368.059C713.928,-349.053 925,-300.917 925,-235 925,-235 925,-235 925,-161 925,-78.6371 650.383,-38.5905 527.374,-24.7837"/>
<polygon fill="grey" stroke="grey" stroke-width="2" points="527.692,-21.2977 517.368,-23.6812 526.925,-28.2555 527.692,-21.2977"/>
</g>
<!-- 6 -->
<g id="node7" class="node"><title>6</title>
<path fill="none" stroke="#56d8a9" stroke-width="2" d="M620.5,-324C620.5,-324 517.5,-324 517.5,-324 511.5,-324 505.5,-318 505.5,-312 505.5,-312 505.5,-300 505.5,-300 505.5,-294 511.5,-288 517.5,-288 517.5,-288 620.5,-288 620.5,-288 626.5,-288 632.5,-294 632.5,-300 632.5,-300 632.5,-312 632.5,-312 632.5,-318 626.5,-324 620.5,-324"/>
<text text-anchor="middle" x="569" y="-303.5" font-family="sans" font-size="10.00">scores_to_frac_escape</text>
</g>
<!-- 5&#45;&gt;6 -->
<g id="edge22" class="edge"><title>5&#45;&gt;6</title>
<path fill="none" stroke="grey" stroke-width="2" d="M565.236,-359.697C565.787,-351.983 566.449,-342.712 567.063,-334.112"/>
<polygon fill="grey" stroke="grey" stroke-width="2" points="570.557,-334.328 567.778,-324.104 563.575,-333.83 570.557,-334.328"/>
</g>
<!-- 6&#45;&gt;0 -->
<g id="edge14" class="edge"><title>6&#45;&gt;0</title>
<path fill="none" stroke="grey" stroke-width="2" d="M632.649,-302.972C711.359,-298.967 838.576,-287.098 868,-252 878.279,-239.739 875.243,-230.267 868,-216 802.875,-87.727 621.378,-41.8307 527.266,-26.3401"/>
<polygon fill="grey" stroke="grey" stroke-width="2" points="527.761,-22.875 517.336,-24.7654 526.664,-29.7886 527.761,-22.875"/>
</g>
<!-- 7 -->
<g id="node8" class="node"><title>7</title>
<path fill="none" stroke="#5673d8" stroke-width="2" d="M529,-252C529,-252 415,-252 415,-252 409,-252 403,-246 403,-240 403,-240 403,-228 403,-228 403,-222 409,-216 415,-216 415,-216 529,-216 529,-216 535,-216 541,-222 541,-228 541,-228 541,-240 541,-240 541,-246 535,-252 529,-252"/>
<text text-anchor="middle" x="472" y="-231.5" font-family="sans" font-size="10.00">call_strong_escape_sites</text>
</g>
<!-- 6&#45;&gt;7 -->
<g id="edge23" class="edge"><title>6&#45;&gt;7</title>
<path fill="none" stroke="grey" stroke-width="2" d="M545.022,-287.697C532.689,-278.796 517.484,-267.823 504.147,-258.199"/>
<polygon fill="grey" stroke="grey" stroke-width="2" points="505.859,-255.118 495.702,-252.104 501.763,-260.794 505.859,-255.118"/>
</g>
<!-- 8 -->
<g id="node9" class="node"><title>8</title>
<path fill="none" stroke="#56b9d8" stroke-width="2" d="M334.5,-180C334.5,-180 265.5,-180 265.5,-180 259.5,-180 253.5,-174 253.5,-168 253.5,-168 253.5,-156 253.5,-156 253.5,-150 259.5,-144 265.5,-144 265.5,-144 334.5,-144 334.5,-144 340.5,-144 346.5,-150 346.5,-156 346.5,-156 346.5,-168 346.5,-168 346.5,-174 340.5,-180 334.5,-180"/>
<text text-anchor="middle" x="300" y="-159.5" font-family="sans" font-size="10.00">escape_profiles</text>
</g>
<!-- 6&#45;&gt;8 -->
<g id="edge26" class="edge"><title>6&#45;&gt;8</title>
<path fill="none" stroke="grey" stroke-width="2" d="M505.456,-300.556C461.552,-294.832 403.617,-281.768 361,-252 338.565,-236.329 321.87,-209.559 311.67,-189.462"/>
<polygon fill="grey" stroke="grey" stroke-width="2" points="314.698,-187.684 307.188,-180.21 308.398,-190.735 314.698,-187.684"/>
</g>
<!-- 9 -->
<g id="node10" class="node"><title>9</title>
<path fill="none" stroke="#78d856" stroke-width="2" d="M651.5,-180C651.5,-180 598.5,-180 598.5,-180 592.5,-180 586.5,-174 586.5,-168 586.5,-168 586.5,-156 586.5,-156 586.5,-150 592.5,-144 598.5,-144 598.5,-144 651.5,-144 651.5,-144 657.5,-144 663.5,-150 663.5,-156 663.5,-156 663.5,-168 663.5,-168 663.5,-174 657.5,-180 651.5,-180"/>
<text text-anchor="middle" x="625" y="-159.5" font-family="sans" font-size="10.00">output_pdbs</text>
</g>
<!-- 6&#45;&gt;9 -->
<g id="edge27" class="edge"><title>6&#45;&gt;9</title>
<path fill="none" stroke="grey" stroke-width="2" d="M575.755,-287.871C585.383,-263.457 603.142,-218.426 614.496,-189.635"/>
<polygon fill="grey" stroke="grey" stroke-width="2" points="617.808,-190.776 618.221,-180.189 611.296,-188.208 617.808,-190.776"/>
</g>
<!-- 10 -->
<g id="node11" class="node"><title>10</title>
<path fill="none" stroke="#61d856" stroke-width="2" d="M556,-180C556,-180 474,-180 474,-180 468,-180 462,-174 462,-168 462,-168 462,-156 462,-156 462,-150 468,-144 474,-144 474,-144 556,-144 556,-144 562,-144 568,-150 568,-156 568,-156 568,-168 568,-168 568,-174 562,-180 556,-180"/>
<text text-anchor="middle" x="515" y="-159.5" font-family="sans" font-size="10.00">natural_mutations</text>
</g>
<!-- 6&#45;&gt;10 -->
<g id="edge29" class="edge"><title>6&#45;&gt;10</title>
<path fill="none" stroke="grey" stroke-width="2" d="M567.242,-287.7C564.937,-269.338 559.957,-239.751 550,-216 546.013,-206.49 540.269,-196.856 534.583,-188.457"/>
<polygon fill="grey" stroke="grey" stroke-width="2" points="537.384,-186.356 528.754,-180.209 531.667,-190.395 537.384,-186.356"/>
</g>
<!-- 11 -->
<g id="node12" class="node"><title>11</title>
<path fill="none" stroke="#c6d856" stroke-width="2" d="M722.5,-252C722.5,-252 647.5,-252 647.5,-252 641.5,-252 635.5,-246 635.5,-240 635.5,-240 635.5,-228 635.5,-228 635.5,-222 641.5,-216 647.5,-216 647.5,-216 722.5,-216 722.5,-216 728.5,-216 734.5,-222 734.5,-228 734.5,-228 734.5,-240 734.5,-240 734.5,-246 728.5,-252 722.5,-252"/>
<text text-anchor="middle" x="685" y="-231.5" font-family="sans" font-size="10.00">homolog_escape</text>
</g>
<!-- 6&#45;&gt;11 -->
<g id="edge30" class="edge"><title>6&#45;&gt;11</title>
<path fill="none" stroke="grey" stroke-width="2" d="M597.377,-287.876C612.544,-278.724 631.405,-267.342 647.739,-257.485"/>
<polygon fill="grey" stroke="grey" stroke-width="2" points="649.761,-260.353 656.514,-252.19 646.144,-254.36 649.761,-260.353"/>
</g>
<!-- 12 -->
<g id="node13" class="node"><title>12</title>
<path fill="none" stroke="#568ad8" stroke-width="2" d="M847,-252C847,-252 765,-252 765,-252 759,-252 753,-246 753,-240 753,-240 753,-228 753,-228 753,-222 759,-216 765,-216 765,-216 847,-216 847,-216 853,-216 859,-222 859,-228 859,-228 859,-240 859,-240 859,-246 853,-252 847,-252"/>
<text text-anchor="middle" x="806" y="-231.5" font-family="sans" font-size="10.00">escape_selections</text>
</g>
<!-- 6&#45;&gt;12 -->
<g id="edge31" class="edge"><title>6&#45;&gt;12</title>
<path fill="none" stroke="grey" stroke-width="2" d="M626.674,-287.966C661.867,-277.571 706.88,-264.276 743.004,-253.607"/>
<polygon fill="grey" stroke="grey" stroke-width="2" points="744.342,-256.861 752.941,-250.671 742.359,-250.147 744.342,-256.861"/>
</g>
<!-- 13 -->
<g id="node14" class="node"><title>13</title>
<path fill="none" stroke="#56a2d8" stroke-width="2" d="M405,-108C405,-108 329,-108 329,-108 323,-108 317,-102 317,-96 317,-96 317,-84 317,-84 317,-78 323,-72 329,-72 329,-72 405,-72 405,-72 411,-72 417,-78 417,-84 417,-84 417,-96 417,-96 417,-102 411,-108 405,-108"/>
<text text-anchor="middle" x="367" y="-87.5" font-family="sans" font-size="10.00">make_supp_data</text>
</g>
<!-- 6&#45;&gt;13 -->
<g id="edge33" class="edge"><title>6&#45;&gt;13</title>
<path fill="none" stroke="grey" stroke-width="2" d="M505.08,-301.887C467.338,-296.571 421.676,-283.463 394,-252 361.429,-214.972 360.661,-153.901 363.511,-118.576"/>
<polygon fill="grey" stroke="grey" stroke-width="2" points="367.007,-118.784 364.48,-108.495 360.039,-118.114 367.007,-118.784"/>
</g>
<!-- 7&#45;&gt;0 -->
<g id="edge11" class="edge"><title>7&#45;&gt;0</title>
<path fill="none" stroke="grey" stroke-width="2" d="M464.107,-215.745C459.893,-205.577 455.143,-192.327 453,-180 444.875,-133.257 454.437,-78.108 461.883,-45.9938"/>
<polygon fill="grey" stroke="grey" stroke-width="2" points="465.344,-46.5746 464.299,-36.0315 458.541,-44.925 465.344,-46.5746"/>
</g>
<!-- 7&#45;&gt;8 -->
<g id="edge24" class="edge"><title>7&#45;&gt;8</title>
<path fill="none" stroke="grey" stroke-width="2" d="M429.924,-215.876C406.202,-206.222 376.384,-194.087 351.299,-183.878"/>
<polygon fill="grey" stroke="grey" stroke-width="2" points="352.521,-180.596 341.939,-180.068 349.882,-187.08 352.521,-180.596"/>
</g>
<!-- 7&#45;&gt;10 -->
<g id="edge28" class="edge"><title>7&#45;&gt;10</title>
<path fill="none" stroke="grey" stroke-width="2" d="M482.629,-215.697C487.628,-207.559 493.691,-197.689 499.212,-188.701"/>
<polygon fill="grey" stroke="grey" stroke-width="2" points="502.241,-190.457 504.493,-180.104 496.277,-186.793 502.241,-190.457"/>
</g>
<!-- 8&#45;&gt;0 -->
<g id="edge7" class="edge"><title>8&#45;&gt;0</title>
<path fill="none" stroke="grey" stroke-width="2" d="M296.44,-143.915C293.411,-124.36 291.791,-92.4091 308,-72 332.486,-41.1697 375.354,-28.0885 410.701,-22.6251"/>
<polygon fill="grey" stroke="grey" stroke-width="2" points="411.494,-26.0491 420.924,-21.2201 410.541,-19.1143 411.494,-26.0491"/>
</g>
<!-- 8&#45;&gt;13 -->
<g id="edge32" class="edge"><title>8&#45;&gt;13</title>
<path fill="none" stroke="grey" stroke-width="2" d="M316.562,-143.697C324.675,-135.22 334.588,-124.864 343.471,-115.583"/>
<polygon fill="grey" stroke="grey" stroke-width="2" points="346.243,-117.749 350.629,-108.104 341.186,-112.908 346.243,-117.749"/>
</g>
<!-- 9&#45;&gt;0 -->
<g id="edge1" class="edge"><title>9&#45;&gt;0</title>
<path fill="none" stroke="grey" stroke-width="2" d="M606.183,-143.871C578.541,-118.711 526.845,-71.6535 495.412,-43.0415"/>
<polygon fill="grey" stroke="grey" stroke-width="2" points="497.635,-40.3324 487.884,-36.1893 492.923,-45.509 497.635,-40.3324"/>
</g>
<!-- 10&#45;&gt;0 -->
<g id="edge5" class="edge"><title>10&#45;&gt;0</title>
<path fill="none" stroke="grey" stroke-width="2" d="M509.451,-143.871C501.577,-119.564 487.082,-74.8187 477.751,-46.0132"/>
<polygon fill="grey" stroke="grey" stroke-width="2" points="480.98,-44.6239 474.568,-36.1893 474.321,-46.7812 480.98,-44.6239"/>
</g>
<!-- 11&#45;&gt;0 -->
<g id="edge3" class="edge"><title>11&#45;&gt;0</title>
<path fill="none" stroke="grey" stroke-width="2" d="M686.498,-215.825C687.305,-196.764 685.993,-165.82 672,-144 638.348,-91.5221 574.021,-57.5246 526.765,-38.4276"/>
<polygon fill="grey" stroke="grey" stroke-width="2" points="527.844,-35.0912 517.257,-34.6917 525.285,-41.6063 527.844,-35.0912"/>
</g>
<!-- 12&#45;&gt;0 -->
<g id="edge10" class="edge"><title>12&#45;&gt;0</title>
<path fill="none" stroke="grey" stroke-width="2" d="M792.021,-215.849C764.619,-183.289 700.514,-112.189 632,-72 599.551,-52.9662 559.4,-39.8063 527.067,-31.3606"/>
<polygon fill="grey" stroke="grey" stroke-width="2" points="527.854,-27.9494 517.301,-28.8895 526.136,-34.7356 527.854,-27.9494"/>
</g>
<!-- 13&#45;&gt;0 -->
<g id="edge12" class="edge"><title>13&#45;&gt;0</title>
<path fill="none" stroke="grey" stroke-width="2" d="M391.952,-71.8761C405.042,-62.8931 421.26,-51.7625 435.436,-42.0341"/>
<polygon fill="grey" stroke="grey" stroke-width="2" points="437.687,-44.734 443.952,-36.1898 433.726,-38.9624 437.687,-44.734"/>
</g>
<!-- 14 -->
<g id="node15" class="node"><title>14</title>
<path fill="none" stroke="#56d863" stroke-width="2" d="M1051,-108C1051,-108 965,-108 965,-108 959,-108 953,-102 953,-96 953,-96 953,-84 953,-84 953,-78 959,-72 965,-72 965,-72 1051,-72 1051,-72 1057,-72 1063,-78 1063,-84 1063,-84 1063,-96 1063,-96 1063,-102 1057,-108 1051,-108"/>
<text text-anchor="middle" x="1008" y="-87.5" font-family="sans" font-size="10.00">structural_contacts</text>
</g>
<!-- 14&#45;&gt;0 -->
<g id="edge8" class="edge"><title>14&#45;&gt;0</title>
<path fill="none" stroke="grey" stroke-width="2" d="M952.773,-74.7266C948.13,-73.7298 943.494,-72.8034 939,-72 792.045,-45.7247 616.778,-30.0393 527.526,-23.1542"/>
<polygon fill="grey" stroke="grey" stroke-width="2" points="527.573,-19.6477 517.336,-22.3776 527.041,-26.6275 527.573,-19.6477"/>
</g>
<!-- 15&#45;&gt;3 -->
<g id="edge15" class="edge"><title>15&#45;&gt;3</title>
<path fill="none" stroke="grey" stroke-width="2" d="M239,-503.697C239,-495.983 239,-486.712 239,-478.112"/>
<polygon fill="grey" stroke="grey" stroke-width="2" points="242.5,-478.104 239,-468.104 235.5,-478.104 242.5,-478.104"/>
</g>
<!-- 16 -->
<g id="node17" class="node"><title>16</title>
<path fill="none" stroke="#d85656" stroke-width="2" d="M443,-468C443,-468 357,-468 357,-468 351,-468 345,-462 345,-456 345,-456 345,-444 345,-444 345,-438 351,-432 357,-432 357,-432 443,-432 443,-432 449,-432 455,-438 455,-444 455,-444 455,-456 455,-456 455,-462 449,-468 443,-468"/>
<text text-anchor="middle" x="400" y="-447.5" font-family="sans" font-size="10.00">get_mut_bind_expr</text>
</g>
<!-- 16&#45;&gt;5 -->
<g id="edge20" class="edge"><title>16&#45;&gt;5</title>
<path fill="none" stroke="grey" stroke-width="2" d="M440.119,-431.876C462.638,-422.264 490.918,-410.193 514.771,-400.013"/>
<polygon fill="grey" stroke="grey" stroke-width="2" points="516.188,-403.213 524.011,-396.068 513.44,-396.775 516.188,-403.213"/>
</g>
<!-- 16&#45;&gt;8 -->
<g id="edge25" class="edge"><title>16&#45;&gt;8</title>
<path fill="none" stroke="grey" stroke-width="2" d="M392.849,-431.795C378.85,-397.789 347.253,-319.419 325,-252 318.188,-231.361 311.587,-207.652 306.88,-189.898"/>
<polygon fill="grey" stroke="grey" stroke-width="2" points="310.26,-188.987 304.34,-180.2 303.488,-190.76 310.26,-188.987"/>
</g>
<!-- 17 -->
<g id="node18" class="node"><title>17</title>
<path fill="none" stroke="#56d8c9" stroke-width="2" d="M568.5,-468C568.5,-468 493.5,-468 493.5,-468 487.5,-468 481.5,-462 481.5,-456 481.5,-456 481.5,-444 481.5,-444 481.5,-438 487.5,-432 493.5,-432 493.5,-432 568.5,-432 568.5,-432 574.5,-432 580.5,-438 580.5,-444 580.5,-444 580.5,-456 580.5,-456 580.5,-462 574.5,-468 568.5,-468"/>
<text text-anchor="middle" x="531" y="-447.5" font-family="sans" font-size="10.00">get_variant_expr</text>
</g>
<!-- 17&#45;&gt;5 -->
<g id="edge19" class="edge"><title>17&#45;&gt;5</title>
<path fill="none" stroke="grey" stroke-width="2" d="M539.157,-431.697C542.914,-423.728 547.453,-414.1 551.618,-405.264"/>
<polygon fill="grey" stroke="grey" stroke-width="2" points="554.838,-406.642 555.937,-396.104 548.506,-403.657 554.838,-406.642"/>
</g>
<!-- 18 -->
<g id="node19" class="node"><title>18</title>
<path fill="none" stroke="#afd856" stroke-width="2" d="M685,-468C685,-468 611,-468 611,-468 605,-468 599,-462 599,-456 599,-456 599,-444 599,-444 599,-438 605,-432 611,-432 611,-432 685,-432 685,-432 691,-432 697,-438 697,-444 697,-444 697,-456 697,-456 697,-462 691,-468 685,-468"/>
<text text-anchor="middle" x="648" y="-447.5" font-family="sans" font-size="10.00">get_variant_bind</text>
</g>
<!-- 18&#45;&gt;5 -->
<g id="edge18" class="edge"><title>18&#45;&gt;5</title>
<path fill="none" stroke="grey" stroke-width="2" d="M627.236,-431.697C616.759,-422.965 603.889,-412.24 592.5,-402.75"/>
<polygon fill="grey" stroke="grey" stroke-width="2" points="594.448,-399.817 584.525,-396.104 589.967,-405.195 594.448,-399.817"/>
</g>
</g>
</svg>
